<?xml version="1.0" encoding="utf-8"?>
<?xml-stylesheet type="text/xsl" href="rss1.xsl"?>
<rss version="2.0" xmlns:atom="http://www.w3.org/2005/Atom" xmlns:content="http://purl.org/rss/1.0/modules/content/" xmlns:dc="http://purl.org/dc/elements/1.1/" xmlns:media="http://search.yahoo.com/mrss/">
<channel>
 <title>Getty</title>
 <link>http://www.gettyimg.com/</link>
 <atom:link href="http://www.gettyimg.com/" rel="self" type="application/rss+xml" />

 
                <item>
                <title><![CDATA[【Unreleased/Unofficial (lossy)】MP3 - Selena Gomez - Everything Is Not What It Seems (Full Extended Version)]]></title>
                <link><![CDATA[https://sharemania.us/threads/selena-gomez-everything-is-not-what-it-seems-full-extended-version.235083/]]></link>
                <description><![CDATA[<article>
<blockquote class="messageText SelectQuoteContainer ugc baseHtml">
<div style="text-align: center"><img src="https://ibb.co/9ypzhFN" class="bbCodeImage LbImage" alt="[​IMG]" data-url="https://ibb.co/9ypzhFN" style=""><br>
<br>
1. Everything Is Not What It Seems (Full Extended Version)<br>
2. Everything Is Not What It Seems (Short Version)<br>
Performed By Selena Gomez<br>
<br>
<div class="bbCodeBlock bbCodeVfcHH HiddenContent">
<div class="attribution type">Hidden Content:</div>
<blockquote>You must reply before you can see the hidden data contained here.</blockquote>
</div>
<div class="bbCodeBlock bbCodeVfcHH HiddenContent">
<div class="attribution type">Hidden Content:</div>
<blockquote>You must reply before you can see the hidden data contained here.</blockquote>
</div></div>
<div class="messageTextEndMarker">&nbsp;</div>
</blockquote>
</article>]]></description>
                <author><![CDATA[Mileys.Vault]]></author>
                </item>

                
                <item>
                <title><![CDATA[【HD Live Performances】WEB-RiP - Olivia Rodrigo - all‐american bitch [231209 NBC SNL]]]></title>
                <link><![CDATA[https://sharemania.us/threads/olivia-rodrigo-all%E2%80%90american-bitch-231209-nbc-snl.235085/]]></link>
                <description><![CDATA[<article>
<blockquote class="messageText SelectQuoteContainer ugc baseHtml">
<div style="text-align: center"><img src="https://i.ytimg.com/vi/bR-pos12iTA/maxresdefault.jpg" class="bbCodeImage LbImage" alt="[​IMG]" data-url="https://i.ytimg.com/vi/bR-pos12iTA/maxresdefault.jpg" style=""><br>
<br>
<div class="bbCodeBlock bbCodeVfcHH HiddenContent">
<div class="attribution type">Hidden Content:</div>
<blockquote>You must reply before you can see the hidden data contained here.</blockquote>
</div>Password:ctg3​</div>
<div class="messageTextEndMarker">&nbsp;</div>
</blockquote>
</article>]]></description>
                <author><![CDATA[djsmosdef]]></author>
                </item>

                
                <item>
                <title><![CDATA[【Unreleased/Unofficial (lossy)】S Club - S Club Party (Ellis/Apollo Mix)  S Club / Good Times Tour 2023 (Studio Version) Webrip]]></title>
                <link><![CDATA[https://sharemania.us/threads/s-club-s-club-party-ellis-apollo-mix-s-club-good-times-tour-2023-studio-version-webrip.235079/]]></link>
                <description><![CDATA[<article>
<blockquote class="messageText SelectQuoteContainer ugc baseHtml">
Source: <a href="https://www.simonellismusic.com/sclub" target="_blank" class="externalLink" rel="nofollow">https://www.simonellismusic.com/sclub</a><br>
<br>
<div class="bbCodeBlock bbCodeCode">
<div class="type">Code:</div>
<pre>General
Complete name                  : S Club - Simon Ellis Music.mp3
Format                         : MPEG Audio
File size                      : 4.42 MiB
Duration                       : 4 min 49 s
Overall bit rate mode          : Variable
Overall bit rate               : 128 kb/s
Encoded by                     : Pro Tools
Recorded date                  : 2023-12-13
Writing library                : LAME3.100
originator_reference           : aa4GR!zj43Rk
umid                           : 0x060A2B340101010501010F1013000000BDF8259FEB838000732351D36636CD3C
time_reference                 : 158916966

Audio
Format                         : MPEG Audio
Format version                 : Version 1
Format profile                 : Layer 3
Format settings                : Joint stereo
Duration                       : 4 min 49 s
Bit rate mode                  : Variable
Bit rate                       : 128 kb/s
Channel(s)                     : 2 channels
Sampling rate                  : 44.1 kHz
Frame rate                     : 38.281 FPS (1152 SPF)
Compression mode               : Lossy
Stream size                    : 4.42 MiB (100%)
Writing library                : LAME3.100</pre>
</div><br>
<div class="bbCodeBlock bbCodeVfcHH HiddenContent">
<div class="attribution type">Hidden Content:</div>
<blockquote>You must either reply or click 'Like' to see the hidden information contained here.</blockquote>
</div>
<div class="messageTextEndMarker">&nbsp;</div>
</blockquote>
</article>]]></description>
                <author><![CDATA[steptacular]]></author>
                </item>

                
                <item>
                <title><![CDATA[【BLU-RAY &amp; BD RIP】Nirvana - Smells Like Teen Spirit (Blu-ray 1080p DTS-HD MA 5.1)]]></title>
                <link><![CDATA[https://sharemania.us/threads/nirvana-smells-like-teen-spirit-blu-ray-1080p-dts-hd-ma-5-1.235081/]]></link>
                <description><![CDATA[<article>
<blockquote class="messageText SelectQuoteContainer ugc baseHtml">
<a href="https://imgbox.com/b8oCLrxu" target="_blank" class="externalLink" rel="nofollow"><img src="https://images2.imgbox.com/59/c4/b8oCLrxu_o.jpg" class="bbCodeImage LbImage" alt="[​IMG]" data-url="https://images2.imgbox.com/59/c4/b8oCLrxu_o.jpg"></a><br>
<br>
<div class="bbCodeBlock bbCodeVfcHH HiddenContent">
<div class="attribution type">Hidden Content:</div>
<blockquote>You must either reply or click 'Like' to see the hidden information contained here.</blockquote>
</div>
<div class="messageTextEndMarker">&nbsp;</div>
</blockquote>
</article>]]></description>
                <author><![CDATA[f3rn3y]]></author>
                </item>

                
                <item>
                <title><![CDATA[【HD Live Performances】WEB-RiP - Olivia Rodrigo - vampire [231209 NBC SNL]]]></title>
                <link><![CDATA[https://sharemania.us/threads/olivia-rodrigo-vampire-231209-nbc-snl.235084/]]></link>
                <description><![CDATA[<article>
<blockquote class="messageText SelectQuoteContainer ugc baseHtml">
<div style="text-align: center"><img src="https://i.ytimg.com/vi/r5AjFq4JQFQ/maxresdefault.jpg" class="bbCodeImage LbImage" alt="[​IMG]" data-url="https://i.ytimg.com/vi/r5AjFq4JQFQ/maxresdefault.jpg" style=""><br>
<br>
<div class="bbCodeBlock bbCodeVfcHH HiddenContent">
<div class="attribution type">Hidden Content:</div>
<blockquote>You must reply before you can see the hidden data contained here.</blockquote>
</div>Password:wsa5​</div>
<div class="messageTextEndMarker">&nbsp;</div>
</blockquote>
</article>]]></description>
                <author><![CDATA[djsmosdef]]></author>
                </item>

                
                <item>
                <title><![CDATA[【Music Videos】Depeche Mode - Cover Me (1080p DTS-HD 5.1) (Clean)]]></title>
                <link><![CDATA[https://sharemania.us/threads/depeche-mode-cover-me-1080p-dts-hd-5-1-clean.235075/]]></link>
                <description><![CDATA[<article>
<blockquote class="messageText SelectQuoteContainer ugc baseHtml">
<img src="https://i.ibb.co/kGdxFVB/Depeche-Mode-Cover-Me-DTS-HD-5-1-mp4-thumbs-2024-01-01-19-51-04.jpg" class="bbCodeImage LbImage" alt="[​IMG]" data-url="https://i.ibb.co/kGdxFVB/Depeche-Mode-Cover-Me-DTS-HD-5-1-mp4-thumbs-2024-01-01-19-51-04.jpg" style=""><br>
<br>
<div class="ToggleTriggerAnchor bbCodeSpoilerContainer">
<button type="button" class="button bbCodeSpoilerButton ToggleTrigger Tooltip JsOnly" data-target="> .SpoilerTarget"><span>Spoiler: <span class="SpoilerTitle">MediaInfo</span></span></button>
<div class="SpoilerTarget bbCodeSpoilerText">Depeche Mode - Cover Me (DTS-HD 5.1).mp4<br>
Format : MPEG-4<br>
Format profile : Base Media / Version 2<br>
Codec ID : mp42 (mp42/mp41)<br>
File size : 663 MiB<br>
Duration : 4 min 52 s<br>
Overall bit rate mode : Variable<br>
Overall bit rate : 19.1 Mb/s<br>
Frame rate : 60.000 FPS<br>
Encoded date : 2023-12-17 06:42:20 UTC<br>
Tagged date : 2023-12-17 07:34:18 UTC<br>
TIM : 00:00:00:00<br>
TSC : 60<br>
TSZ : 1<br>
<br>
Video<br>
ID : 1<br>
Format : AVC<br>
Format/Info : Advanced Video Codec<br>
Format profile : High@L4.2<br>
Format settings : CABAC / 4 Ref Frames<br>
Format settings, CABAC : Yes<br>
Format settings, Reference : 4 frames<br>
Format settings, GOP : M=3, N=60<br>
Codec ID : avc1<br>
Codec ID/Info : Advanced Video Coding<br>
Duration : 4 min 52 s<br>
Bit rate : 18.7 Mb/s<br>
Width : 1 920 pixels<br>
Height : 1 080 pixels<br>
Display aspect ratio : 16:9<br>
Frame rate mode : Constant<br>
Frame rate : 60.000 FPS<br>
Color space : YUV<br>
Chroma subsampling : 4:2:0<br>
Bit depth : 8 bits<br>
Scan type : Progressive<br>
Bits/(Pixel*Frame) : 0.151<br>
Stream size : 652 MiB (98%)<br>
Language : English<br>
Encoded date : 2023-12-17 06:42:28 UTC<br>
Tagged date : 2023-12-17 06:42:28 UTC<br>
Color range : Limited<br>
Color primaries : BT.709<br>
Transfer characteristics : BT.709<br>
Matrix coefficients : BT.709<br>
Codec configuration box : avcC<br>
<br>
Audio<br>
ID : 2<br>
Format : AAC LC<br>
Format/Info : Advanced Audio Codec Low Complexity<br>
Codec ID : mp4a-40-2<br>
Duration : 4 min 52 s<br>
Source duration : 4 min 52 s<br>
Bit rate mode : Variable<br>
Bit rate : 317 kb/s<br>
Maximum bit rate : 359 kb/s<br>
Channel(s) : 6 channels<br>
Channel layout : C L R Ls Rs LFE<br>
Sampling rate : 48.0 kHz<br>
Frame rate : 46.875 FPS (1024 SPF)<br>
Compression mode : Lossy<br>
Stream size : 11.0 MiB (2%)<br>
Source stream size : 11.0 MiB (2%)<br>
Language : English<br>
Encoded date : 2023-12-17 06:42:26 UTC<br>
Tagged date : 2023-12-17 06:42:26 UTC</div>
</div><br>
<div class="bbCodeBlock bbCodeVfcHH HiddenContent">
<div class="attribution type">Hidden Content:</div>
<blockquote>You must reply before you can see the hidden data contained here.</blockquote>
</div><br>
*Este es mi segundo post para comenzar a compartir videos, musica, etc... Si hay que corregir algo en el post (Prefix, MediaInfo, etc) le ruego a algun administrador que me envie mensaje por interno para que me enseñe y asi pueda proceder a la edición!<br>
<br>
De antemano muchisimas gracias!!!<br>
------------------------------------------------<br>
<br>
*This is my second post to start sharing videos, music, etc... If something needs to be corrected in the post (Prefix, MediaInfo, etc.) I ask an administrator to send me a message internally so they can show me and so I can proceed to editing!<br>
<br>
Thank you very much in advance!!!
<div class="messageTextEndMarker">&nbsp;</div>
</blockquote>
</article>]]></description>
                <author><![CDATA[DJ-RoGeRs-BS]]></author>
                </item>

                
                <item>
                <title><![CDATA[【Requests】[REQ AUD] - Sarah Jeffery - Suffer &amp; Even The Stars (Apple Music) (Dolby Atmos)?]]></title>
                <link><![CDATA[https://sharemania.us/threads/sarah-jeffery-suffer-even-the-stars-apple-music-dolby-atmos.235080/]]></link>
                <description><![CDATA[<article>
<blockquote class="messageText SelectQuoteContainer ugc baseHtml">
can someone rip this please?
<div class="messageTextEndMarker">&nbsp;</div>
</blockquote>
</article>]]></description>
                <author><![CDATA[MoonlightAvenueMashups]]></author>
                </item>

                
                <item>
                <title><![CDATA[【Unreleased/Unofficial (lossy)】S Club 7 - Bring It All Back (Demo)]]></title>
                <link><![CDATA[https://sharemania.us/threads/s-club-7-bring-it-all-back-demo.235078/]]></link>
                <description><![CDATA[<article>
<blockquote class="messageText SelectQuoteContainer ugc baseHtml">
<div class="bbCodeBlock bbCodeCode">
<div class="type">Code:</div>
<pre>General
Complete name                  :S Club 7 - Bring It All Back (Demo).mp3
Format                         : MPEG Audio
File size                      : 3.42 MiB
Duration                       : 3 min 38 s
Overall bit rate mode          : Constant
Overall bit rate               : 128 kb/s
Album                          : Demos
Album/Performer                : S Club 7
Track name                     : Bring It All Back [Demo Version]
Track name/Position            : 1
Performer                      : S Club 7
Performer/Url                  : 0Ô4
Composer                       : Eliot Kennedy/Mike Percy/S Club 7/Tim Lever
Publisher                      : Polydor
Genre                          : Other
Recorded date                  : 2003
Cover                          : Yes
Cover MIME                     : image/jpeg
File type                      : audio/mp3
Official audio file webpage    : Ptêk

Audio
Format                         : MPEG Audio
Format version                 : Version 1
Format profile                 : Layer 3
Format settings                : Joint stereo / MS Stereo
Duration                       : 3 min 38 s
Bit rate mode                  : Constant
Bit rate                       : 128 kb/s
Channel(s)                     : 2 channels
Sampling rate                  : 44.1 kHz
Frame rate                     : 38.281 FPS (1152 SPF)
Compression mode               : Lossy
Stream size                    : 3.34 MiB (98%)</pre>
</div><br>
<div class="bbCodeBlock bbCodeVfcHH HiddenContent">
<div class="attribution type">Hidden Content:</div>
<blockquote>You must either reply or click 'Like' to see the hidden information contained here.</blockquote>
</div>
<div class="messageTextEndMarker">&nbsp;</div>
</blockquote>
</article>]]></description>
                <author><![CDATA[steptacular]]></author>
                </item>

                
                <item>
                <title><![CDATA[【Albums (lossless)】FLAC - Mariah Carey - Best Japan - Promo (2018) [826 -3099 kbits/44100 - 96000Hz]]]></title>
                <link><![CDATA[https://sharemania.us/threads/mariah-carey-best-japan-promo-2018-826-3099-kbits-44100-96000hz.235082/]]></link>
                <description><![CDATA[<article>
<blockquote class="messageText SelectQuoteContainer ugc baseHtml">
<div style="text-align: center"><img src="https://mariahcareynetwork.com/gallery/artwork/compilations/japanbest-1.jpg" class="bbCodeImage LbImage" alt="[​IMG]" data-url="https://mariahcareynetwork.com/gallery/artwork/compilations/japanbest-1.jpg" style=""><br>
<img src="https://mariahcareynetwork.com/gallery/artwork/compilations/scans/japanbest-back.jpg" class="bbCodeImage LbImage" alt="[​IMG]" data-url="https://mariahcareynetwork.com/gallery/artwork/compilations/scans/japanbest-back.jpg" style=""> <br>
<a href="https://open.spotify.com/intl-pt/album/3UVEw3XU1q9bvizN1cY25o" target="_blank" class="externalLink" rel="nofollow">https://open.spotify.com/intl-pt/album/3UVEw3XU1q9bvizN1cY25o</a><br>
<div class="bbCodeBlock bbCodeVfcHH HiddenContent">
<div class="attribution type">Hidden Content:</div>
<blockquote>You must either reply or click 'Like' to see the hidden information contained here.</blockquote>
</div></div>
<div class="messageTextEndMarker">&nbsp;</div>
</blockquote>
</article>]]></description>
                <author><![CDATA[Fan Made]]></author>
                </item>

                </channel></rss>